<svg width="79" height="31" fill="none"><path d="M22.414.136a.307.307 0 00-.365-.116.355.355 0 00-.225.337l-.081 3.357a.397.397 0 00.072.238l5.004 6.849c.097.133.122.31.063.468a.44.44 0 01-.342.294c-3.674.553-7.228 1.38-10.566 2.464a.4.4 0 01-.252-.002C7.571 11.197 2.75 7.765 1.465 6.78c-.144-.112-.342-.077-.45.079l-.883 1.26a.388.388 0 00.07.518c1.008.795 4.79 3.588 11.137 6.227.171.072.277.24.28.44 0 .201-.107.372-.278.444-6.574 2.783-10.25 5.886-11.22 6.77a.385.385 0 00-.034.523l.972 1.18c.118.144.316.161.453.042 1.214-1.072 5.827-4.798 14.201-7.68a.39.39 0 01.255-.003c5.466 1.805 11.333 2.974 17.442 3.474a.42.42 0 01.302.173l4.855 6.646c.428.584 1.21.678 1.742.208l.128-.114c.257-.228.419-.552.455-.914a1.45 1.45 0 00-.266-1L22.414.136zm8.748 17.073a.417.417 0 01-.372.245c-.016 0-.031 0-.05-.003a74.667 74.667 0 01-9.06-1.656c-.235-.06-.338-.277-.336-.466.002-.188.108-.403.34-.458a68.692 68.692 0 016.946-1.238.423.423 0 01.388.174l2.103 2.88a.5.5 0 01.04.522zM30.747 5.306a1.192 1.192 0 00-.83-.5 1.155 1.155 0 00-.91.292l-.13.114a1.398 1.398 0 00-.454.914c-.036.361.059.715.266 1l14.327 19.626c.207.284.502.463.83.5.33.04.652-.065.91-.293l.13-.113c.53-.47.616-1.328.19-1.914L30.748 5.306zM35.252 5.304c-.428-.585-1.21-.679-1.741-.208l-.128.114a1.388 1.388 0 00-.455.913c-.036.362.058.716.265 1l14.348 19.628c.428.585 1.207.679 1.74.208l.13-.113c.258-.228.418-.553.454-.914a1.446 1.446 0 00-.266-1L35.252 5.304zM78.612 22.41c-1.01-.794-4.791-3.587-11.138-6.226a.465.465 0 01-.28-.441c0-.2.106-.372.278-.443 6.579-2.783 10.252-5.886 11.22-6.77a.386.386 0 00.034-.525l-.972-1.18a.311.311 0 00-.453-.043c-1.214 1.072-5.83 4.799-14.203 7.68a.376.376 0 01-.25.003c-5.87-1.936-12.203-3.14-18.825-3.57a.412.412 0 01-.309-.176l-3.957-5.415c-.428-.585-1.21-.679-1.741-.208l-.129.114a1.388 1.388 0 00-.455.913 1.45 1.45 0 00.266 1l15.805 21.632c.042.059.103.101.169.123l3.263.996c.174.052.302-.045.365-.151a.383.383 0 00-.018-.429l-6.489-8.881a.5.5 0 01-.063-.47c.06-.162.19-.27.347-.293 4.128-.55 8.086-1.433 11.762-2.624a.399.399 0 01.252.002c8.151 2.83 12.973 6.26 14.257 7.245a.31.31 0 00.45-.077l.883-1.26a.387.387 0 00.066-.277.363.363 0 00-.135-.248zm-21.48-6.231a69.315 69.315 0 01-8.168 1.381c-.015.003-.03.003-.045.003a.412.412 0 01-.335-.178l-2.323-3.18a.503.503 0 01-.042-.52.415.415 0 01.416-.247c3.597.364 7.129.975 10.503 1.815.234.057.338.274.336.463-.003.193-.109.408-.343.463z" fill="var(--fg)"></path><path d="M52.12.051a.3.3 0 00-.363.037l-8.493 7.436a.783.783 0 00-.106 1.033l.813 1.119c.23.317.65.369.939.114l7.018-6.134a.385.385 0 00.124-.252l.239-2.996A.365.365 0 0052.12.05zM34.15 22.995a.784.784 0 00-.141-.54l-.816-1.119a.655.655 0 00-.522-.277.634.634 0 00-.417.16l-7.018 6.134a.385.385 0 00-.124.253l-.24 2.996a.371.371 0 00.172.354.3.3 0 00.363-.037l8.494-7.436a.731.731 0 00.25-.488z" fill="var(--fg)"></path></svg>