<svg width="77" height="34" fill="none"><path fill="#fff" d="M0 0h2.108v33.595H0zm65.781 0h5.482v33.595h-5.482zM3.373 0h.843v33.595h-.843zm2.109 0h.843v33.595h-.843zM7.59 0h.422v33.595H7.59zm12.705 0h5.969v33.595h-5.969zm9.222 0h.843v33.595h-.843zm27.83 0h.843v33.595h-.843zm-3.625 0h2.388v33.595h-2.388zM32.233 0h2.388v33.595h-2.388zm14.151 0h.422v33.595h-.422zm1.686 0h.843v33.595h-.843zm25.301 0h.843v33.595h-.843zm-23.23 0h1.194v33.595h-1.194zm25.338 0h.843v33.595h-.843zM38.372 0h2.108v33.595h-2.108zm21.927 0h2.108v33.595h-2.108zm-17.71 0h2.108v33.595h-2.108zM11.807 0h2.952v33.595h-2.952zm5.06 0h2.108v33.595h-2.108z"></path></svg>