<svg width="44" height="36" fill="none" class="hide-on-mobile"><path d="M43.986 12.38c-3.547-4.039-7.909-5.665-12.968-4.833-3.98.654-7.145 2.676-8.019 3.279a.233.233 0 01-.36-.25c.176-.643.8-.934 1.159-1.052a.051.051 0 00.033-.04.042.042 0 00-.022-.045 1.688 1.688 0 00-.633-.23.234.234 0 01-.195-.285c.523-2.119 2.399-2.488 3.18-2.547.027-.002.036-.022.04-.031.003-.011.007-.03-.01-.046-.337-.334-.84-.406-1.11-.419a.234.234 0 01-.194-.345c.823-1.571 2.31-1.875 2.91-1.934.027-.002.036-.023.04-.032a.047.047 0 00-.011-.05 1.99 1.99 0 00-.841-.46.236.236 0 01-.157-.137.227.227 0 01.01-.201C27.572 1.41 29.105.57 30.26.094c.033-.013.031-.04.028-.056-.004-.014-.015-.042-.054-.035-5.664.768-7.493 4.593-8.017 6.2a.231.231 0 01-.221.163.227.227 0 01-.222-.162c-.523-1.608-2.353-5.433-8.017-6.2-.037-.008-.048.02-.053.034-.004.015-.006.043.027.056 1.157.476 2.69 1.318 3.421 2.628.035.06.04.134.012.2a.233.233 0 01-.157.137 1.97 1.97 0 00-.841.461.049.049 0 00-.013.05c.004.01.013.03.04.032.602.057 2.086.361 2.909 1.934a.235.235 0 01-.194.345c-.27.013-.774.085-1.11.419a.042.042 0 00-.01.046c.005.01.014.03.041.031.782.06 2.656.428 3.18 2.547a.233.233 0 01-.195.284c-.154.022-.39.081-.633.23-.022.014-.022.034-.022.045.002.01.005.031.033.04.358.117.985.41 1.158 1.054a.225.225 0 01-.09.247.233.233 0 01-.27.002c-.874-.603-4.038-2.625-8.019-3.28-5.05-.831-9.413.795-12.96 4.835-.024.027-.01.05 0 .062.01.011.032.028.061.01 1.44-.912 4.274-2.417 7.073-2.228a.232.232 0 01.188.343 2.7 2.7 0 00-.317 1.281c0 .024.017.037.026.041.01.004.031.011.052-.007.621-.572 2.3-1.867 4.474-1.496a.24.24 0 01.179.136.23.23 0 01-.013.216c-.126.207-.325.647-.253 1.28.002.022.019.031.028.035.007.004.03.01.05-.007.538-.458 2.558-1.885 5.92-1.06.087.02.153.086.173.173a.233.233 0 01-.072.228 1.97 1.97 0 00-.658 1.299c-.002.024.013.037.018.042.008.004.024.015.045.006.38-.157 1.147-.412 2.012-.36a.23.23 0 01.216.208.23.23 0 01-.17.251c-1.354.377-4.793 1.531-7.464 4.124-3.324 3.224-4.336 7.486-3.01 12.67a.043.043 0 00.048.036c.015 0 .04-.008.044-.04.188-1.727.795-5.875 2.361-7.114a.234.234 0 01.35.07c.139.249.5.87.87 1.261a.04.04 0 00.047.011.042.042 0 00.031-.04c.082-1.06.391-3.619 1.505-4.46a.24.24 0 01.2-.04.23.23 0 01.154.13c.11.242.436.847 1.085 1.225.02.011.039.004.046 0a.042.042 0 00.024-.039c.02-1.009.271-4.39 2.597-5.558a.235.235 0 01.229.009.23.23 0 01.11.199c0 .313.102.898.782 1.296a.05.05 0 00.046.002.046.046 0 00.026-.035c.078-.649.452-2.814 1.983-3.43a.233.233 0 01.225.03.233.233 0 01.096.206l-.268 3.805a.11.11 0 00.1.118l.653.068c.12.013.136.18.02.216l-.745.225a.11.11 0 00-.08.098l-.254 3.627a.11.11 0 00.1.118l.959.1c.12.013.136.18.02.216l-1.059.319a.11.11 0 00-.079.098l-.516 7.37a.11.11 0 00.1.118l2.28.236c.12.013.137.18.02.215l-2.419.73a.11.11 0 00-.08.099l-.314 4.515a.041.041 0 00.012.035.048.048 0 00.035.014h4.38c.02 0 .03-.009.036-.014a.051.051 0 00.013-.035l-.13-1.655a.11.11 0 00-.099-.101l-2.02-.209c-.12-.013-.136-.18-.02-.215l1.964-.593a.112.112 0 00.08-.114l-.511-6.591a.11.11 0 00-.1-.102l-.964-.1c-.12-.012-.137-.18-.02-.215l.942-.284a.111.111 0 00.08-.115l-.394-5.059a.11.11 0 00-.1-.101l-.955-.1c-.12-.013-.136-.18-.02-.215l.933-.283a.111.111 0 00.08-.114l-.475-6.1a.228.228 0 01.098-.208.231.231 0 01.229-.024c1.481.65 1.844 2.77 1.922 3.405.002.02.016.031.026.035a.045.045 0 00.046-.002c.68-.398.782-.983.782-1.296a.23.23 0 01.11-.2.235.235 0 01.229-.009c2.328 1.17 2.577 4.55 2.597 5.56 0 .023.016.034.024.038a.05.05 0 00.046 0c.65-.378.976-.983 1.084-1.225a.239.239 0 01.155-.13.24.24 0 01.2.04c1.113.843 1.423 3.399 1.505 4.46.001.027.022.036.03.04.01.004.03.007.05-.011.37-.39.731-1.013.87-1.262a.233.233 0 01.158-.116.243.243 0 01.194.046c1.565 1.238 2.172 5.387 2.36 7.114.004.033.03.04.045.04.016.002.04-.002.047-.035 1.327-5.182.314-9.446-3.01-12.67-2.672-2.593-6.11-3.748-7.463-4.124a.232.232 0 01-.17-.25.231.231 0 01.216-.21c.865-.053 1.632.202 2.01.36.022.01.039-.002.044-.005a.042.042 0 00.019-.043 1.975 1.975 0 00-.659-1.298.232.232 0 01-.072-.229.237.237 0 01.174-.173c3.362-.826 5.381.603 5.92 1.06.02.017.04.011.05.008.009-.004.026-.013.028-.035.071-.633-.128-1.074-.253-1.28a.235.235 0 01.166-.353c2.174-.368 3.853.925 4.474 1.496.02.019.043.011.052.008a.04.04 0 00.026-.04 2.677 2.677 0 00-.318-1.283.232.232 0 01.188-.343c2.802-.188 5.633 1.317 7.073 2.228.03.019.05.002.061-.01.02-.016.034-.04.01-.065z" fill="var(--fg)"></path></svg>